# xmcd
#
# Track frame offsets:
#	150
#	8752
#	16765
#	26495
#	36485
#	47755
#	57487
#	66345
#	75832
#	83850
#	95430
#	107862
#	116157
#	125540
#
# Disc length: 1783 seconds
# Revision: 4
# Processed by: cddbd v1.5.2PL0 Copyright (c) Steve Scherf et al.
# Submitted via: dBpowerAMP V12.0
#
DISCID=b106f50e
DTITLE=Johnny Cash - Johnny Cash   Songs Of Our Soil
DYEAR=2008
DGENRE=Country
TTITLE0=Drink To Me
TTITLE1=Five Feet High And Rising
TTITLE2=The Man On The Hill
TTITLE3=Hank And Joe And Me
TTITLE4=Clementine
TTITLE5=The Great Speckle Bird
TTITLE6=I Want To Go Home
TTITLE7=The Caretaker
TTITLE8=Old Apache Squaw
TTITLE9=Don't Step On Mother's Roses
TTITLE10=My Grandfather's Clock
TTITLE11=It Could Be You (Instead Of Him)
TTITLE12=I Got Stripes
TTITLE13=You Dreamer You
EXTD=
EXTT0=
EXTT1=
EXTT2=
EXTT3=
EXTT4=
EXTT5=
EXTT6=
EXTT7=
EXTT8=
EXTT9=
EXTT10=
EXTT11=
EXTT12=
EXTT13=
PLAYORDER=
